<svg width="38" height="37" viewBox="0 0 38 37" fill="none" xmlns="http://www.w3.org/2000/svg">
<path d="M9.28889 33.6364H16.0444C16.0444 35.4864 14.5244 37 12.6667 37C10.8089 37 9.28889 35.4864 9.28889 33.6364ZM5.91111 31.9545H19.4222V28.5909H5.91111V31.9545ZM25.3333 15.9773C25.3333 22.4018 20.8409 25.8327 18.9662 26.9091H6.36711C4.49244 25.8327 0 22.4018 0 15.9773C0 9.01455 5.67467 3.36364 12.6667 3.36364C19.6587 3.36364 25.3333 9.01455 25.3333 15.9773ZM33.5582 12.395L31.2444 13.4545L33.5582 14.5141L34.6222 16.8182L35.6862 14.5141L38 13.4545L35.6862 12.395L34.6222 10.0909L33.5582 12.395ZM29.5556 10.0909L31.1431 6.62636L34.6222 5.04545L31.1431 3.46455L29.5556 0L27.968 3.46455L24.4889 5.04545L27.968 6.62636L29.5556 10.0909Z" fill="#CBC4E7"/>
</svg>
