<svg width="30" height="34" viewBox="0 0 30 34" fill="none" xmlns="http://www.w3.org/2000/svg">
<path d="M18.3333 12.0013H11.6667C10.75 12.0013 10 11.2513 10 10.3346C10 9.41797 10.75 8.66797 11.6667 8.66797H18.3333C19.25 8.66797 20 9.41797 20 10.3346C20 11.2513 19.25 12.0013 18.3333 12.0013Z" fill="#CBC4E7"/>
<path d="M18.3333 17.0013H11.6667C10.75 17.0013 10 16.2513 10 15.3346C10 14.418 10.75 13.668 11.6667 13.668H18.3333C19.25 13.668 20 14.418 20 15.3346C20 16.2513 19.25 17.0013 18.3333 17.0013Z" fill="#CBC4E7"/>
<path d="M27.5 2.83398L25 0.333984L22.5 2.83398L20 0.333984L17.5 2.83398L15 0.333984L12.5 2.83398L10 0.333984L7.5 2.83398L5 0.333984V23.6673H1.66667C0.75 23.6673 0 24.4173 0 25.334V28.6673C0 31.434 2.23333 33.6673 5 33.6673H25C27.7667 33.6673 30 31.434 30 28.6673V0.333984L27.5 2.83398ZM20 30.334H5C4.08333 30.334 3.33333 29.584 3.33333 28.6673V27.0007H8.33333H15H20V30.334ZM26.6667 28.6673C26.6667 29.584 25.9167 30.334 25 30.334C24.0833 30.334 23.3333 29.584 23.3333 28.6673V25.334C23.3333 24.4173 22.5833 23.6673 21.6667 23.6673H18.3333H15H8.33333V5.33398H26.6667V28.6673Z" fill="#CBC4E7"/>
<path d="M23.3346 12.0013C24.2551 12.0013 25.0013 11.2551 25.0013 10.3346C25.0013 9.41416 24.2551 8.66797 23.3346 8.66797C22.4142 8.66797 21.668 9.41416 21.668 10.3346C21.668 11.2551 22.4142 12.0013 23.3346 12.0013Z" fill="#CBC4E7"/>
<path d="M23.3346 17.0013C24.2551 17.0013 25.0013 16.2551 25.0013 15.3346C25.0013 14.4142 24.2551 13.668 23.3346 13.668C22.4142 13.668 21.668 14.4142 21.668 15.3346C21.668 16.2551 22.4142 17.0013 23.3346 17.0013Z" fill="#CBC4E7"/>
</svg>
