<svg width="26" height="26" viewBox="0 0 26 26" fill="none" xmlns="http://www.w3.org/2000/svg">
<rect width="26" height="26" rx="13" fill="#7972DD"/>
<path d="M19.0069 8.7926L14.7512 13.0483L19.0069 17.3041C19.475 17.7722 19.475 18.5382 19.0069 19.0064C18.5388 19.4745 17.7727 19.4745 17.3046 19.0064L13.0489 14.7506L8.79314 19.0064C8.32501 19.4745 7.55897 19.4745 7.09084 19.0064C6.62271 18.5382 6.62271 17.7722 7.09084 17.3041L11.3466 13.0483L7.09084 8.7926C6.62271 8.32447 6.62271 7.55844 7.09084 7.09031C7.55897 6.62218 8.32501 6.62218 8.79314 7.09031L13.0489 11.346L17.3046 7.09031C17.7727 6.62218 18.5388 6.62218 19.0069 7.09031C19.475 7.55844 19.475 8.32447 19.0069 8.7926Z" fill="white"/>
</svg>
