<svg width="72" height="72" viewBox="0 0 72 72" fill="none" xmlns="http://www.w3.org/2000/svg">
<path fill-rule="evenodd" clip-rule="evenodd" d="M51.2381 5.6553C50.9712 6.65789 50.4076 7.11525 49.3781 7.1645C49.0335 7.18099 49.1179 7.25605 49.6822 7.4357C50.7878 7.78762 51.1263 8.13758 51.3566 9.16772C51.5424 9.99717 51.5608 10.0156 51.582 9.39488C51.6155 8.41551 52.3234 7.63466 53.3962 7.39339C54.0867 7.23805 54.1674 7.1825 53.7279 7.16493C52.4064 7.11199 51.79 6.5238 51.5632 5.09878C51.5238 4.8521 51.3917 5.07839 51.2381 5.6553ZM47.7162 10.4827C45.5174 12.1445 45.042 12.7593 45.2159 13.7157C45.3589 14.5016 44.964 14.275 44.7416 13.4436L44.576 12.8242L42.8457 14.0908C40.5412 15.778 39.9441 16.8077 40.5797 17.9992C40.7527 18.3236 40.7357 18.3889 40.501 18.2984C40.1686 18.1706 39.7096 17.285 39.7096 16.7716C39.7096 16.5035 39.5917 16.5258 39.0815 16.8903C38.4178 17.3644 38.0899 17.4692 38.2908 17.1431C38.3572 17.0355 38.1212 16.8458 37.7665 16.7217C37.2353 16.536 37.0803 16.561 36.8867 16.8634C36.694 17.1646 36.6769 17.1333 36.7911 16.6881C36.8679 16.3898 36.9847 14.9008 37.0511 13.3794C37.1475 11.167 37.1142 10.6131 36.8852 10.6131C36.4245 10.6131 33.8518 12.2258 32.7289 13.2184C31.4243 14.3716 30.4562 15.7779 29.8197 17.4451L29.3216 18.7493L29.4533 17.6102C29.6084 16.2692 29.5926 16.2635 27.6069 16.9361C25.921 17.5074 24.3092 18.9651 23.9236 20.268C23.4534 21.8575 23.4 24.3756 23.8016 26.0332C24.8402 30.3191 27.297 33.6332 34.0004 39.7895C38.4885 43.9114 40.1926 45.6621 41.7318 47.7323C42.5825 48.876 43.3951 49.9987 43.5378 50.2274C44.119 51.158 43.0836 48.168 42.3487 46.7933C41.386 44.9923 40.1214 43.2894 37.5775 40.3688C34.9462 37.3478 33.0343 34.5848 32.2609 32.6857C31.7286 31.3789 31.6239 30.8257 31.636 29.3805C31.644 28.4258 31.7364 27.4308 31.8411 27.1696C31.9745 26.837 32.0331 27.2276 32.0366 28.4714C32.0409 30.0255 32.1222 30.398 32.6854 31.4416C33.4781 32.9109 34.7012 33.8031 38.3282 35.5583C41.1695 36.9332 41.5456 37.23 42.8403 39.1195C43.3131 39.8095 43.8663 40.4634 44.0696 40.5725C44.6958 40.9086 45.8873 40.8014 46.2727 40.3742C46.7383 39.8581 46.7241 39.6214 46.1981 39.1438C45.9602 38.928 45.7655 38.6535 45.7655 38.5342C45.7655 38.4148 45.9359 38.4706 46.144 38.6578C46.7011 39.1595 48.0375 39.3495 48.7952 39.0347C49.7012 38.6583 50.2823 37.6182 50.2224 36.4804C50.1807 35.6885 50.0124 35.3871 49.0716 34.4192C46.6665 31.9456 45.5272 29.6437 45.2172 26.6331C44.9583 24.1198 44.438 22.5207 43.3457 20.8842C42.8777 20.1827 42.6433 20.0079 42.294 20.0996C41.9447 20.1912 42.1125 19.8593 43.0436 18.6156C43.7035 17.7345 44.245 16.9478 44.2474 16.8678C44.2496 16.7875 43.9122 16.6094 43.4976 16.4722C42.3928 16.1064 42.3855 15.8574 43.4798 15.8741C44.0227 15.8823 44.6718 15.7361 44.9735 15.5378C45.4513 15.2238 47.9283 11.9316 47.9283 11.6107C47.9283 11.5394 47.7579 11.4721 47.5498 11.4615C47.3418 11.4506 47.4633 11.3517 47.8202 11.2412C48.3784 11.0688 50.0661 9.19354 49.8403 8.99697C49.7998 8.96182 48.8441 9.6305 47.7162 10.4827ZM40.791 9.52831C40.791 9.64764 40.8883 9.74528 41.0073 9.74528C41.1263 9.74528 41.2236 9.64764 41.2236 9.52831C41.2236 9.40898 41.1263 9.31135 41.0073 9.31135C40.8883 9.31135 40.791 9.40898 40.791 9.52831ZM52.451 14.5378C52.1367 14.853 52.1415 14.9251 52.5051 15.3755C52.7237 15.6465 52.9028 15.7463 52.9028 15.597C52.9028 15.4477 53.0352 15.2173 53.197 15.0848C53.4427 14.8836 53.4338 14.7903 53.1429 14.5185C52.8329 14.2288 52.7568 14.231 52.451 14.5378ZM20.464 22.6494C19.9574 23.4292 19.2457 24.921 18.8823 25.9644C18.3085 27.6118 18.2211 28.1618 18.2192 30.1399C18.2159 33.1457 18.727 34.8076 20.6867 38.1636C21.7885 40.0503 25.6463 44.0995 30.9262 48.9109C35.3375 52.9306 38.039 56.466 39.3158 59.8899C39.9166 61.5011 39.9962 61.9797 40.0139 64.0947C40.025 65.4073 39.9631 66.823 39.8766 67.2406L39.7189 68L40.2631 67.3491C41.1576 66.2788 42.5074 63.3309 42.8459 61.7081C43.7511 57.3681 42.709 53.3821 39.5543 49.117C38.8417 48.1535 36.5197 45.7083 34.3075 43.5916C28.262 37.8073 26.4995 36.0274 25.1776 34.3706C22.058 30.461 20.7099 26.4263 21.3038 22.7759C21.4288 22.0072 21.4982 21.3452 21.458 21.3049C21.4178 21.2645 20.9705 21.8694 20.464 22.6494ZM48.3399 22.1068C48.2915 22.4045 48.0118 22.7657 47.712 22.9171C47.3093 23.1209 47.2691 23.1914 47.5544 23.1938C47.7652 23.1955 48.052 23.4491 48.192 23.7572C48.4439 24.3118 48.4481 24.3126 48.6204 23.8451C48.7162 23.5856 49.0011 23.319 49.2533 23.2528C49.7066 23.1339 49.7059 23.1293 49.1998 22.8575C48.9182 22.7065 48.6291 22.3548 48.5575 22.0762L48.4269 21.5698L48.3399 22.1068ZM39.7116 24.4164C40.6866 24.8078 41.0155 25.258 40.9902 26.166C40.9809 26.502 40.924 26.655 40.8641 26.5057C40.804 26.3567 40.4954 26.233 40.1783 26.2313C39.861 26.2293 39.486 26.1542 39.3447 26.064C38.9187 25.7923 38.3892 24.0649 38.732 24.0649C38.7891 24.0649 39.2299 24.223 39.7116 24.4164ZM17 37.7438C17 40.0731 18.042 42.7799 19.8781 45.2203C20.9947 46.7044 24.2403 49.9076 27.6789 52.9191C32.175 56.8568 34.2271 59.3618 35.5278 62.4995L36.2789 64.3116L36.1762 62.5759C35.9149 58.1585 33.6239 54.6116 27.7336 49.506C24.6084 46.7968 20.7739 43.0273 19.766 41.673C18.8425 40.4324 17.4326 37.7355 17.4326 37.21C17.4326 37.0347 17.3352 36.831 17.2163 36.7572C17.0828 36.6744 17 37.0519 17 37.7438Z" fill="url(#paint0_linear_926_6400)"/>
<defs>
<linearGradient id="paint0_linear_926_6400" x1="35.5" y1="5" x2="35.5" y2="68" gradientUnits="userSpaceOnUse">
<stop stop-color="#E574FE"/>
<stop offset="0.390625" stop-color="#A383FF"/>
<stop offset="0.677083" stop-color="#AFC4FF"/>
<stop offset="1" stop-color="white"/>
</linearGradient>
</defs>
</svg>
