<svg width="88" height="83" viewBox="0 0 88 83" fill="none" xmlns="http://www.w3.org/2000/svg">
<path opacity="0.5" d="M78.668 17.9993H69.2213C69.698 16.656 70.0013 15.1827 70.0013 13.666C70.0013 6.47268 64.1946 0.666016 57.0013 0.666016C52.4513 0.666016 48.508 3.00602 46.168 6.51601L44.0013 9.41935L41.8346 6.47268C39.4946 3.00602 35.5513 0.666016 31.0013 0.666016C23.808 0.666016 18.0013 6.47268 18.0013 13.666C18.0013 15.1827 18.3046 16.656 18.7813 17.9993H9.33464C4.52464 17.9993 0.711302 21.856 0.711302 26.666L0.667969 74.3327C0.667969 79.1427 4.52464 82.9993 9.33464 82.9993H78.668C83.478 82.9993 87.3346 79.1427 87.3346 74.3327V26.666C87.3346 21.856 83.478 17.9993 78.668 17.9993ZM57.0013 9.33268C59.3846 9.33268 61.3346 11.2827 61.3346 13.666C61.3346 16.0493 59.3846 17.9993 57.0013 17.9993C54.618 17.9993 52.668 16.0493 52.668 13.666C52.668 11.2827 54.618 9.33268 57.0013 9.33268ZM31.0013 9.33268C33.3846 9.33268 35.3346 11.2827 35.3346 13.666C35.3346 16.0493 33.3846 17.9993 31.0013 17.9993C28.618 17.9993 26.668 16.0493 26.668 13.666C26.668 11.2827 28.618 9.33268 31.0013 9.33268ZM78.668 74.3327H9.33464V65.666H78.668V74.3327ZM78.668 52.666H9.33464V26.666H31.348L22.3346 38.9293L29.3546 43.9993L39.668 29.9593L44.0013 24.066L48.3346 29.9593L58.648 43.9993L65.668 38.9293L56.6546 26.666H78.668V52.666Z" fill="url(#paint0_linear_603_12375)"/>
<defs>
<linearGradient id="paint0_linear_603_12375" x1="44.0013" y1="0.666016" x2="44.0013" y2="82.9993" gradientUnits="userSpaceOnUse">
<stop stop-color="#DE59FB"/>
<stop offset="0.520833" stop-color="#A383FF"/>
<stop offset="1" stop-color="#87A6FF"/>
</linearGradient>
</defs>
</svg>
