<svg width="26" height="29" viewBox="0 0 26 29" fill="none" xmlns="http://www.w3.org/2000/svg">
<path d="M21.1056 20.4284C20.0456 20.4284 19.0971 20.8468 18.3718 21.5024L8.42687 15.7139C8.49661 15.3931 8.5524 15.0723 8.5524 14.7376C8.5524 14.4028 8.49661 14.082 8.42687 13.7612L18.2602 8.02857C19.0134 8.72597 20.0037 9.15836 21.1056 9.15836C23.421 9.15836 25.29 7.28933 25.29 4.97396C25.29 2.65859 23.421 0.789551 21.1056 0.789551C18.7903 0.789551 16.9212 2.65859 16.9212 4.97396C16.9212 5.30871 16.977 5.62951 17.0467 5.95032L7.2134 11.683C6.4602 10.9856 5.46989 10.5532 4.368 10.5532C2.05263 10.5532 0.183594 12.4222 0.183594 14.7376C0.183594 17.0529 2.05263 18.922 4.368 18.922C5.46989 18.922 6.4602 18.4896 7.2134 17.7922L17.1444 23.5946C17.0746 23.8875 17.0328 24.1943 17.0328 24.5012C17.0328 26.7468 18.86 28.574 21.1056 28.574C23.3513 28.574 25.1784 26.7468 25.1784 24.5012C25.1784 22.2556 23.3513 20.4284 21.1056 20.4284Z" fill="#7972DD"/>
</svg>
