<svg width="31" height="31" viewBox="0 0 31 31" fill="none" xmlns="http://www.w3.org/2000/svg">
<g clip-path="url(#clip0_314_9125)">
<path d="M29.9747 12.6091H28.7857V12.5478H15.4999V18.4526H23.8426C22.6255 21.8899 19.355 24.3573 15.4999 24.3573C10.6086 24.3573 6.6428 20.3915 6.6428 15.5002C6.6428 10.6088 10.6086 6.64304 15.4999 6.64304C17.7578 6.64304 19.8119 7.4948 21.3759 8.88611L25.5513 4.71071C22.9148 2.25359 19.3882 0.738281 15.4999 0.738281C7.34768 0.738281 0.738037 7.34792 0.738037 15.5002C0.738037 23.6524 7.34768 30.2621 15.4999 30.2621C23.6522 30.2621 30.2618 23.6524 30.2618 15.5002C30.2618 14.5104 30.16 13.5442 29.9747 12.6091Z" fill="#FFC107"/>
<path d="M2.44006 8.62926L7.29009 12.1861C8.60242 8.93704 11.7807 6.64304 15.4999 6.64304C17.7578 6.64304 19.8119 7.4948 21.3759 8.88611L25.5513 4.71071C22.9148 2.25359 19.3882 0.738281 15.4999 0.738281C9.82987 0.738281 4.91268 3.9394 2.44006 8.62926Z" fill="#FF3D00"/>
<path d="M15.5001 30.2628C19.3131 30.2628 22.7777 28.8036 25.3972 26.4306L20.8284 22.5645C19.2965 23.7295 17.4246 24.3596 15.5001 24.3581C11.6605 24.3581 8.40032 21.9098 7.17213 18.4932L2.35828 22.2021C4.80137 26.9827 9.76285 30.2628 15.5001 30.2628Z" fill="#4CAF50"/>
<path d="M29.9748 12.6081H28.7857V12.5469H15.5V18.4516H23.8427C23.2605 20.0876 22.2118 21.5171 20.8261 22.5636L20.8283 22.5621L25.3971 26.4282C25.0738 26.722 30.2619 22.8802 30.2619 15.4993C30.2619 14.5095 30.16 13.5433 29.9748 12.6081Z" fill="#1976D2"/>
</g>
<defs>
<clipPath id="clip0_314_9125">
<rect width="31" height="31" fill="white"/>
</clipPath>
</defs>
</svg>
