<svg width="299" height="171" viewBox="0 0 299 171" fill="none" xmlns="http://www.w3.org/2000/svg">
<path opacity="0.2" fill-rule="evenodd" clip-rule="evenodd" d="M125.013 1.74061C112.338 5.14594 101.831 14.6318 96.4741 27.5041L93.5905 34.4367L84.5221 34.5572C79.4985 34.625 73.1941 35.6463 70.3852 36.8478C63.0218 39.9971 52.2376 50.6276 49.3771 57.5561C46.9625 63.4078 46.7585 63.55 40.6935 63.554C24.7348 63.5676 10.8861 72.467 3.88567 87.2099C0.609093 94.1099 2.54415e-06 97.1089 2.54415e-06 106.35C-0.00135703 115.903 0.541114 118.39 4.22692 125.739C10.8657 138.977 26.0155 148.896 39.5922 148.896C44.5859 148.896 45.2426 147.418 42.8158 141.633C39.6126 133.993 40.3821 133.621 46.2555 139.968C57.8948 152.549 76.8147 155.287 91.0766 146.454L97.7834 142.301L101.574 147.434C110.833 159.971 119.458 164.415 134.597 164.448C145.998 164.473 152.884 162.451 160.654 156.797C162.56 155.41 163.83 155.968 168.646 160.303C177.289 168.082 185.172 171.113 196.457 170.997C208.543 170.871 216.764 167.398 225.442 158.752C229.014 155.193 233.131 149.365 234.591 145.799C237.022 139.864 237.53 139.407 240.644 140.381C242.513 140.966 249.243 141.439 255.599 141.431C265.818 141.416 267.993 140.954 274.387 137.439C282.827 132.8 288.135 127.172 293.33 117.353C296.749 110.89 299 108.765 299 95.1284C299 81.5626 296.738 79.8723 293.402 73.5736C284.234 56.2598 271.533 48.1474 253.986 48.3953C248.385 48.4739 246.082 47.9971 246.082 46.7617C246.082 43.8264 236.007 29.3612 229.651 23.1723C217.141 10.9895 202.657 5.19335 184.741 5.19877C177.894 5.20148 170.574 6.04536 167.126 7.22788C161.591 9.12831 160.949 9.08226 156.714 6.47475C151.665 3.36471 139.782 -0.111061 134.597 0.00272096C132.727 0.0447119 128.415 0.826287 125.013 1.74061Z" fill="url(#paint0_linear_319_5988)"/>
<path d="M151.468 112.8C151.335 110.4 151.235 107.9 151.168 105.3C151.168 102.7 151.135 99.9 151.068 96.9C151.002 93.9 150.968 90.6667 150.968 87.2C150.968 83.6667 150.968 79.7333 150.968 75.4V62.9L144.968 66C143.302 67.0667 141.968 67.7 140.968 67.9C140.035 68.1 139.002 68.2 137.868 68.2C136.868 68.2 135.968 67.7667 135.168 66.9C134.435 66.0333 134.068 65 134.068 63.8C134.068 62.6 134.468 61.5667 135.268 60.7C136.135 59.7667 137.135 58.9333 138.268 58.2C139.735 57.2 141.302 56.2 142.968 55.2C144.702 54.2 146.368 53.3 147.968 52.5C149.568 51.6333 151.035 50.9667 152.368 50.5C153.768 49.9667 154.935 49.7 155.868 49.7C156.335 49.7 156.802 49.7667 157.268 49.9C157.802 50.0333 158.268 50.3 158.668 50.7C159.135 51.1 159.502 51.7333 159.768 52.6C160.102 53.4 160.302 54.5 160.368 55.9C160.502 58.3 160.602 60.4 160.668 62.2C160.735 64 160.802 65.7667 160.868 67.5C160.935 69.1667 160.968 70.9333 160.968 72.8C160.968 74.6667 160.968 76.8333 160.968 79.3C160.968 82.3 160.968 85.1667 160.968 87.9C160.968 90.6333 160.935 93.3333 160.868 96C160.802 98.6667 160.735 101.367 160.668 104.1C160.602 106.833 160.502 109.7 160.368 112.7C160.302 114.3 160.135 115.533 159.868 116.4C159.668 117.267 159.368 117.933 158.968 118.4C158.568 118.867 158.102 119.133 157.568 119.2C157.102 119.333 156.535 119.4 155.868 119.4C154.668 119.4 153.668 119 152.868 118.2C152.068 117.333 151.602 115.533 151.468 112.8Z" fill="#7972DD"/>
<defs>
<linearGradient id="paint0_linear_319_5988" x1="149.5" y1="0" x2="149.5" y2="171" gradientUnits="userSpaceOnUse">
<stop stop-color="#DE59FB"/>
<stop offset="0.520833" stop-color="#A383FF"/>
<stop offset="1" stop-color="#87A6FF"/>
</linearGradient>
</defs>
</svg>
