<svg width="299" height="171" viewBox="0 0 299 171" fill="none" xmlns="http://www.w3.org/2000/svg">
<path opacity="0.2" fill-rule="evenodd" clip-rule="evenodd" d="M125.013 1.74061C112.338 5.14594 101.831 14.6318 96.4741 27.5041L93.5905 34.4367L84.5221 34.5572C79.4985 34.625 73.1941 35.6463 70.3852 36.8478C63.0218 39.9971 52.2376 50.6276 49.3771 57.5561C46.9625 63.4078 46.7585 63.55 40.6935 63.554C24.7348 63.5676 10.8861 72.467 3.88567 87.2099C0.609093 94.1099 2.54415e-06 97.1089 2.54415e-06 106.35C-0.00135703 115.903 0.541114 118.39 4.22692 125.739C10.8657 138.977 26.0155 148.896 39.5922 148.896C44.5859 148.896 45.2426 147.418 42.8158 141.633C39.6126 133.993 40.3821 133.621 46.2555 139.968C57.8948 152.549 76.8147 155.287 91.0766 146.454L97.7834 142.301L101.574 147.434C110.833 159.971 119.458 164.415 134.597 164.448C145.998 164.473 152.884 162.451 160.654 156.797C162.56 155.41 163.83 155.968 168.646 160.303C177.289 168.082 185.172 171.113 196.457 170.997C208.543 170.871 216.764 167.398 225.442 158.752C229.014 155.193 233.131 149.365 234.591 145.799C237.022 139.864 237.53 139.407 240.644 140.381C242.513 140.966 249.243 141.439 255.599 141.431C265.818 141.416 267.993 140.954 274.387 137.439C282.827 132.8 288.135 127.172 293.33 117.353C296.749 110.89 299 108.765 299 95.1284C299 81.5626 296.738 79.8723 293.402 73.5736C284.234 56.2598 271.533 48.1474 253.986 48.3953C248.385 48.4739 246.082 47.9971 246.082 46.7617C246.082 43.8264 236.007 29.3612 229.651 23.1723C217.141 10.9895 202.657 5.19335 184.741 5.19877C177.894 5.20148 170.574 6.04536 167.126 7.22788C161.591 9.12831 160.949 9.08226 156.714 6.47475C151.665 3.36471 139.782 -0.111061 134.597 0.00272096C132.727 0.0447119 128.415 0.826287 125.013 1.74061Z" fill="url(#paint0_linear_319_5989)"/>
<path d="M147.833 58.6C145.433 58.6 143.433 58.8667 141.833 59.4C140.233 59.8667 138.9 60.5 137.833 61.3C136.767 62.1 135.9 62.9333 135.233 63.8C134.633 64.6667 134.033 65.5 133.433 66.3C132.9 67.1 132.3 67.7667 131.633 68.3C131.033 68.7667 130.267 69 129.333 69C127.733 69 126.6 68.6 125.933 67.8C125.333 66.9333 125.033 65.8 125.033 64.4C125.033 61.4667 126.133 58.7333 128.333 56.2C129 55.4 129.9 54.5667 131.033 53.7C132.233 52.7667 133.633 51.9333 135.233 51.2C136.9 50.4667 138.8 49.8667 140.933 49.4C143.133 48.8667 145.6 48.6 148.333 48.6C155.6 48.6 161.233 50.3667 165.233 53.9C169.233 57.4333 171.233 62.4 171.233 68.8C171.233 70.0667 171.1 71.4667 170.833 73C170.633 74.5333 170.2 76.1333 169.533 77.8C168.933 79.4667 168.067 81.2 166.933 83C165.8 84.8 164.3 86.6333 162.433 88.5C160.767 90.1667 159 91.7 157.133 93.1C155.267 94.5 153.333 95.9 151.333 97.3C149.333 98.7 147.233 100.2 145.033 101.8C142.9 103.333 140.733 105.1 138.533 107.1C140.667 108.233 142.967 108.967 145.433 109.3C147.9 109.633 150.667 109.8 153.733 109.8C156.6 109.8 158.9 109.733 160.633 109.6C162.367 109.467 163.767 109.3 164.833 109.1C165.9 108.9 166.733 108.733 167.333 108.6C167.933 108.467 168.567 108.4 169.233 108.4C171.7 108.4 172.933 109.533 172.933 111.8C172.933 113.8 172.1 115.333 170.433 116.4C168.767 117.467 166.767 118.267 164.433 118.8C162.1 119.267 159.7 119.533 157.233 119.6C154.767 119.733 152.733 119.8 151.133 119.8C150.267 119.8 149.033 119.733 147.433 119.6C145.9 119.533 144.233 119.367 142.433 119.1C140.633 118.833 138.8 118.467 136.933 118C135.133 117.467 133.467 116.8 131.933 116C130.467 115.133 129.267 114.1 128.333 112.9C127.4 111.633 126.933 110.133 126.933 108.4C126.933 106.067 127.767 103.867 129.433 101.8C131.167 99.6667 133.3 97.6 135.833 95.6C138.367 93.5333 141.1 91.5 144.033 89.5C146.967 87.4333 149.7 85.3333 152.233 83.2C154.767 81 156.867 78.7333 158.533 76.4C160.267 74.0667 161.133 71.5333 161.133 68.8C161.133 65.4 159.967 62.8667 157.633 61.2C155.367 59.4667 152.1 58.6 147.833 58.6Z" fill="#7972DD"/>
<defs>
<linearGradient id="paint0_linear_319_5989" x1="149.5" y1="0" x2="149.5" y2="171" gradientUnits="userSpaceOnUse">
<stop stop-color="#DE59FB"/>
<stop offset="0.520833" stop-color="#A383FF"/>
<stop offset="1" stop-color="#87A6FF"/>
</linearGradient>
</defs>
</svg>
