<svg width="299" height="171" viewBox="0 0 299 171" fill="none" xmlns="http://www.w3.org/2000/svg">
<path opacity="0.2" fill-rule="evenodd" clip-rule="evenodd" d="M125.013 1.74061C112.338 5.14594 101.831 14.6318 96.4741 27.5041L93.5905 34.4367L84.5221 34.5572C79.4985 34.625 73.1941 35.6463 70.3852 36.8478C63.0218 39.9971 52.2376 50.6276 49.3771 57.5561C46.9625 63.4078 46.7585 63.55 40.6935 63.554C24.7348 63.5676 10.8861 72.467 3.88567 87.2099C0.609093 94.1099 2.54415e-06 97.1089 2.54415e-06 106.35C-0.00135703 115.903 0.541114 118.39 4.22692 125.739C10.8657 138.977 26.0155 148.896 39.5922 148.896C44.5859 148.896 45.2426 147.418 42.8158 141.633C39.6126 133.993 40.3821 133.621 46.2555 139.968C57.8948 152.549 76.8147 155.287 91.0766 146.454L97.7834 142.301L101.574 147.434C110.833 159.971 119.458 164.415 134.597 164.448C145.998 164.473 152.884 162.451 160.654 156.797C162.56 155.41 163.83 155.968 168.646 160.303C177.289 168.082 185.172 171.113 196.457 170.997C208.543 170.871 216.764 167.398 225.442 158.752C229.014 155.193 233.131 149.365 234.591 145.799C237.022 139.864 237.53 139.407 240.644 140.381C242.513 140.966 249.243 141.439 255.599 141.431C265.818 141.416 267.993 140.954 274.387 137.439C282.827 132.8 288.135 127.172 293.33 117.353C296.749 110.89 299 108.765 299 95.1284C299 81.5626 296.738 79.8723 293.402 73.5736C284.234 56.2598 271.533 48.1474 253.986 48.3953C248.385 48.4739 246.082 47.9971 246.082 46.7617C246.082 43.8264 236.007 29.3612 229.651 23.1723C217.141 10.9895 202.657 5.19335 184.741 5.19877C177.894 5.20148 170.574 6.04536 167.126 7.22788C161.591 9.12831 160.949 9.08226 156.714 6.47475C151.665 3.36471 139.782 -0.111061 134.597 0.00272096C132.727 0.0447119 128.415 0.826287 125.013 1.74061Z" fill="url(#paint0_linear_319_5990)"/>
<path d="M132.901 59C130.767 59 129.201 58.4667 128.201 57.4C127.201 56.2667 126.701 55.1333 126.701 54C126.701 52.8 127.267 51.8333 128.401 51.1C129.534 50.3 131.034 49.7 132.901 49.3C134.767 48.8333 136.901 48.5333 139.301 48.4C141.701 48.2 144.134 48.1 146.601 48.1C148.667 48.1 150.967 48.2 153.501 48.4C156.034 48.5333 158.401 48.9333 160.601 49.6C162.801 50.2 164.634 51.1333 166.101 52.4C167.567 53.6 168.301 55.2667 168.301 57.4C168.301 59.0667 167.667 60.8 166.401 62.6C165.134 64.4 163.667 66.1 162.001 67.7C160.334 69.3 158.667 70.7333 157.001 72C155.401 73.2 154.234 74.0667 153.501 74.6C160.567 74.6 165.701 76.3667 168.901 79.9C172.101 83.4333 173.701 88.5 173.701 95.1C173.701 99.2333 172.934 102.833 171.401 105.9C169.934 108.967 167.934 111.533 165.401 113.6C162.934 115.6 160.067 117.1 156.801 118.1C153.601 119.1 150.301 119.6 146.901 119.6C144.101 119.6 141.334 119.367 138.601 118.9C135.934 118.433 133.534 117.633 131.401 116.5C129.267 115.3 127.534 113.733 126.201 111.8C124.934 109.8 124.301 107.333 124.301 104.4C124.301 101.333 125.967 99.8 129.301 99.8C130.301 99.8 131.067 100.067 131.601 100.6C132.201 101.067 132.701 101.667 133.101 102.4C133.567 103.067 134.034 103.833 134.501 104.7C134.967 105.567 135.634 106.367 136.501 107.1C137.434 107.767 138.634 108.367 140.101 108.9C141.634 109.367 143.634 109.6 146.101 109.6C148.034 109.6 149.934 109.4 151.801 109C153.667 108.533 155.334 107.8 156.801 106.8C158.267 105.8 159.434 104.467 160.301 102.8C161.234 101.067 161.701 98.9333 161.701 96.4C161.701 91.4667 160.667 87.9667 158.601 85.9C156.601 83.8333 153.767 82.8 150.101 82.8C149.167 82.8 148.301 82.9667 147.501 83.3C146.701 83.5667 145.901 83.9 145.101 84.3C144.301 84.6333 143.467 84.9667 142.601 85.3C141.734 85.5667 140.767 85.7 139.701 85.7C138.634 85.7 137.701 85.2333 136.901 84.3C136.101 83.3 135.701 82.0333 135.701 80.5C135.701 79.4333 136.201 78.2 137.201 76.8C138.267 75.4 139.701 73.8 141.501 72C143.367 70.2 145.601 68.2333 148.201 66.1C150.801 63.9 153.701 61.5333 156.901 59C156.234 59 155.434 59 154.501 59C153.634 59 152.734 59.0333 151.801 59.1C150.934 59.1 150.067 59.1 149.201 59.1C148.334 59.1 147.601 59.1 147.001 59.1C144.467 59.1 141.967 59.1 139.501 59.1C137.101 59.0333 134.901 59 132.901 59Z" fill="#7972DD"/>
<defs>
<linearGradient id="paint0_linear_319_5990" x1="149.5" y1="0" x2="149.5" y2="171" gradientUnits="userSpaceOnUse">
<stop stop-color="#DE59FB"/>
<stop offset="0.520833" stop-color="#A383FF"/>
<stop offset="1" stop-color="#87A6FF"/>
</linearGradient>
</defs>
</svg>
