<svg width="130" height="124" viewBox="0 0 130 124" fill="none" xmlns="http://www.w3.org/2000/svg">
<path d="M117 26H102.83C103.545 23.985 104 21.775 104 19.5C104 8.71 95.29 0 84.5 0C77.675 0 71.76 3.51 68.25 8.775L65 13.13L61.75 8.71C58.24 3.51 52.325 0 45.5 0C34.71 0 26 8.71 26 19.5C26 21.775 26.455 23.985 27.17 26H13C5.785 26 0.0649999 31.785 0.0649999 39L0 110.5C0 117.715 5.785 123.5 13 123.5H117C124.215 123.5 130 117.715 130 110.5V39C130 31.785 124.215 26 117 26ZM84.5 13C88.075 13 91 15.925 91 19.5C91 23.075 88.075 26 84.5 26C80.925 26 78 23.075 78 19.5C78 15.925 80.925 13 84.5 13ZM45.5 13C49.075 13 52 15.925 52 19.5C52 23.075 49.075 26 45.5 26C41.925 26 39 23.075 39 19.5C39 15.925 41.925 13 45.5 13ZM117 110.5H13V97.5H117V110.5ZM117 78H13V39H46.02L32.5 57.395L43.03 65L58.5 43.94L65 35.1L71.5 43.94L86.97 65L97.5 57.395L83.98 39H117V78Z" fill="white"/>
</svg>
