<svg width="92" height="145" viewBox="0 0 92 145" fill="none" xmlns="http://www.w3.org/2000/svg">
<path fill-rule="evenodd" clip-rule="evenodd" d="M75.5245 0.621999C75.3366 0.972891 75.2406 1.31767 75.3112 1.38803C75.3816 1.45839 75.5964 1.17144 75.7882 0.749875C76.2098 -0.175233 76.0045 -0.274964 75.5245 0.621999ZM73.666 3.23885C72.2878 4.82047 69.4228 9.33863 69.4433 9.89847C69.4561 10.2503 69.6388 11.0151 69.8492 11.5982L70.2323 12.6579L70.5871 11.6395C70.7826 11.0793 70.8539 10.4776 70.7459 10.3029C70.6376 10.1279 70.6835 10.0676 70.8475 10.1692C71.2189 10.3986 74.4051 3.88221 74.2644 3.18104C74.1717 2.71848 74.1145 2.72399 73.666 3.23885ZM65.8232 14.3022C64.602 16.102 63.604 17.8139 63.6053 18.1063C63.6065 18.3991 63.9718 19.5488 64.4172 20.6614L65.227 22.6839L67.191 18.6035C69.2462 14.3331 69.3252 13.8978 68.412 11.8548C68.0452 11.0344 68.0326 11.0463 65.8232 14.3022ZM59.7827 22.9069C57.3711 26.4378 57.3659 26.5039 59.1938 30.4231L60.3352 32.8704L62.1243 29.204C63.1081 27.1873 63.9133 25.2086 63.9133 24.8073C63.9133 23.9736 62.3757 19.8688 62.0634 19.8688C61.9502 19.8688 60.9238 21.2359 59.7827 22.9069ZM45.5577 22.1197C43.649 23.5206 42.2421 25.2007 41.3059 27.1968C40.6307 28.6368 40.5102 29.3172 40.5102 31.6936C40.5099 33.2336 40.401 34.4264 40.2676 34.3444C40.1342 34.2621 39.8096 33.6561 39.5459 32.9974C39.2825 32.3388 39.0026 31.7997 38.924 31.7997C38.5645 31.7997 34.462 34.3545 32.7256 35.6598C29.4794 38.1002 27.6414 40.8431 25.6773 46.178C23.8818 51.0554 23.1886 56.4839 23.8274 60.6653C24.5056 65.1051 25.941 69.1889 29.2726 76.1584C32.9939 83.9432 34.4969 87.6975 36.3952 93.9502C38.2855 100.177 38.883 103.746 39.0509 109.81C39.2941 118.603 37.9245 124.139 34.0915 129.855C33.331 130.989 32.7088 131.964 32.7088 132.022C32.7088 132.079 33.4317 131.702 34.3149 131.184C40.8128 127.37 46.0255 122.049 49.1539 116.036C50.3329 113.77 52.706 107.373 52.4591 107.126C52.4013 107.068 51.5474 107.263 50.5617 107.56C48.5744 108.159 43.9048 108.311 43.0381 107.805C42.6486 107.578 43.2204 107.489 45.1796 107.471C51.4899 107.414 59.2816 103.157 69.42 94.2277C70.8502 92.9679 72.0892 91.851 72.1734 91.7454C72.6723 91.1198 76.9223 87.4775 77.1535 87.4775C78.3127 87.4775 81.7376 91.9051 83.2394 95.3452C83.5906 96.1498 83.9203 96.8571 83.9724 96.9167C84.0244 96.9764 84.5065 96.5245 85.044 95.9121C85.5818 95.2999 86.067 94.8444 86.1224 94.9001C86.3375 95.1151 85.2875 98.0486 84.5181 99.3828C84.073 100.154 82.1613 102.316 80.2691 104.187C76.2838 108.129 76.0978 108.572 76.9174 112.175C77.7828 115.98 80.0424 118.462 82.16 117.934C84.2211 117.42 87.1928 113.18 89.3444 107.682C92.0987 100.644 92.6488 96.4058 91.2806 92.7617C89.3258 87.5537 82.3687 78.2509 79.2057 76.6151C78.3421 76.1685 77.9581 76.1501 76.189 76.4698C72.159 77.1985 59.0167 81.9021 45.4448 87.4726C42.9429 88.4996 40.7595 89.2944 40.5925 89.2387C40.4258 89.183 41.8948 88.1976 43.8571 87.0489C47.9057 84.6786 47.8038 85.0889 44.9936 82.4677C41.8759 79.5596 38.6847 77.6433 34.3914 76.1006L31.9439 75.221L34.1356 75.3639L36.3273 75.5065L36.8379 73.2117C37.6654 69.4927 39.5003 65.6341 41.7737 62.8333L42.7811 61.5922L41.945 61.0985C39.5545 59.6863 36.6314 55.4879 36.2165 52.8713C36.0718 51.9581 36.14 52.0224 36.8008 53.4207C38.86 57.7792 43.4679 60.5983 52.4411 62.99C56.9367 64.1883 57.8529 64.8194 59.0754 67.5592C59.5716 68.6712 60.2419 70.1663 60.565 70.8812L61.152 72.1814H63.4306C66.7851 72.1814 68.3826 71.3744 66.1341 70.8158C64.8375 70.4933 62.8652 69.1381 62.1289 68.0634C61.1376 66.617 61.3246 66.476 62.648 67.6715C64.4762 69.3232 69.9851 70.8017 71.43 70.0286C72.1119 69.6634 74.3148 65.4165 74.3148 64.4667C74.3148 63.7386 73.0419 62.3439 71.0316 60.8699C68.6751 59.1418 67.8445 57.9612 64.676 51.8376L61.9851 46.6369L62.0518 44.2798C62.1025 42.4874 61.9734 41.5947 61.5136 40.5549C60.8024 38.947 58.4758 36.3096 58.0181 36.5926C57.8391 36.703 57.7914 36.6415 57.9086 36.4519C58.0291 36.257 57.4004 35.5736 56.4181 34.832C54.0637 33.0546 54.5599 32.9319 57.0159 34.6846C58.7505 35.9223 59.0185 36.0312 59.0185 35.4992C59.0185 34.6053 56.2318 28.419 55.917 28.6135C55.7702 28.7044 55.0953 29.5959 54.4167 30.595C53.7382 31.5941 53.1224 32.4116 53.0483 32.4116C52.9743 32.4116 52.1532 32.0386 51.2241 31.5831C49.5868 30.7801 49.5348 30.7161 49.5348 29.5059C49.5348 27.8389 48.78 25.0076 47.7631 22.8601L46.9344 21.1093L45.5577 22.1197ZM52.397 39.5414C53.9964 40.2734 54.1237 40.4074 54.1237 41.361C54.1237 41.927 53.9364 42.6459 53.7076 42.9588C53.3044 43.5104 53.2649 43.5083 52.4074 42.8879C51.9213 42.5357 50.6973 41.3953 49.6877 40.3536L47.8522 38.459L49.2612 38.6049C50.0365 38.6851 51.4477 39.1067 52.397 39.5414ZM23.225 42.54C17.5755 47.0863 13.8805 51.733 10.4125 58.6517C7.46457 64.5331 6.16714 70.1761 6.49876 75.6769C6.83375 81.2407 8.63413 86.4508 13.7612 96.6946C20.3251 109.81 22.392 116.811 22.4207 126.024C22.4422 132.893 21.1043 137.948 18.0102 142.688L16.501 145L17.6449 144.409C20.5726 142.896 25.0976 138.817 27.3798 135.633C31.5508 129.814 33.5152 121.435 32.7286 112.816C31.8779 103.492 29.0609 94.3188 23.348 82.2673C18.9879 73.0701 17.6409 68.1432 17.6214 61.3212C17.6119 57.9111 17.7468 56.4772 18.284 54.285C19.1641 50.6938 21.5112 45.9171 23.8292 43.0001C24.847 41.7192 25.6437 40.6763 25.5996 40.6825C25.5556 40.6886 24.487 41.5247 23.225 42.54ZM2.11972 70.865C-1.07202 79.6034 -0.693282 86.7503 3.4866 96.6552C3.94794 97.7488 5.62534 101.24 7.21341 104.414C12.2731 114.523 14.3467 120.279 15.6056 127.706C16.1208 130.746 16.0581 137.924 15.4921 140.708C15.2354 141.97 15.0672 143.046 15.118 143.1C15.1687 143.153 15.6249 142.121 16.1315 140.805C18.7432 134.023 18.9044 126.119 16.6133 117.16C15.2599 111.867 13.5966 107.743 9.35122 99.1555C3.75 87.8256 2.45808 83.9322 2.22832 77.688C2.11727 74.667 2.21119 73.2858 2.6762 71.1107C2.99987 69.5964 3.2284 68.3158 3.18404 68.2647C3.13968 68.2136 2.6609 69.3837 2.11972 70.865ZM62.4427 102.453C60.5402 103.607 57.8229 105.074 56.4043 105.713L53.8251 106.874L53.3625 108.466C53.108 109.341 52.9 110.139 52.9 110.239C52.9 110.892 58.4207 109.932 61.4099 108.761C62.4504 108.353 63.3015 108.134 63.3015 108.273C63.3015 108.699 61.1936 114.611 60.4105 116.382C59.563 118.298 59.0087 118.559 56.4649 118.242C54.8457 118.039 54.8374 118.043 54.0371 119.201C53.5956 119.841 53.0177 120.884 52.7531 121.52C52.0954 123.102 51.1268 127.378 51.0087 129.223L50.9114 130.739L52.0868 131.019C52.9379 131.221 53.8058 131.164 55.2326 130.812C59.2256 129.827 63.1421 126.24 65.3053 121.588C67.7252 116.384 70.9172 107.794 71.4125 105.155C71.5728 104.3 71.4642 103.929 70.8368 103.183C70.1285 102.341 66.7854 100.307 66.1649 100.34C66.0202 100.348 64.3453 101.299 62.4427 102.453Z" fill="url(#paint0_linear_1_1431)"/>
<defs>
<linearGradient id="paint0_linear_1_1431" x1="46" y1="0" x2="46" y2="145" gradientUnits="userSpaceOnUse">
<stop stop-color="#E574FE"/>
<stop offset="0.390625" stop-color="#A383FF"/>
<stop offset="0.677083" stop-color="#AFC4FF"/>
<stop offset="1" stop-color="white"/>
</linearGradient>
</defs>
</svg>
