<svg width="30" height="30" viewBox="0 0 30 30" fill="none" xmlns="http://www.w3.org/2000/svg">
<g clip-path="url(#clip0_497_6796)">
<path d="M7.33333 27.2727H12.6667C12.6667 28.7727 11.4667 30 10 30C8.53333 30 7.33333 28.7727 7.33333 27.2727ZM4.66667 25.9091H15.3333V23.1818H4.66667V25.9091ZM20 12.9545C20 18.1636 16.4533 20.9455 14.9733 21.8182H5.02667C3.54667 20.9455 0 18.1636 0 12.9545C0 7.30909 4.48 2.72727 10 2.72727C15.52 2.72727 20 7.30909 20 12.9545ZM26.4933 10.05L24.6667 10.9091L26.4933 11.7682L27.3333 13.6364L28.1733 11.7682L30 10.9091L28.1733 10.05L27.3333 8.18182L26.4933 10.05ZM23.3333 8.18182L24.5867 5.37273L27.3333 4.09091L24.5867 2.80909L23.3333 0L22.08 2.80909L19.3333 4.09091L22.08 5.37273L23.3333 8.18182Z" fill="#CBC4E7"/>
</g>
<defs>
<clipPath id="clip0_497_6796">
<rect width="30" height="30" fill="white"/>
</clipPath>
</defs>
</svg>
