<svg width="130" height="126" viewBox="0 0 130 126" fill="none" xmlns="http://www.w3.org/2000/svg">
<path d="M31.7778 114.545H54.8889C54.8889 120.845 49.6889 126 43.3333 126C36.9778 126 31.7778 120.845 31.7778 114.545ZM20.2222 108.818H66.4444V97.3636H20.2222V108.818ZM86.6667 54.4091C86.6667 76.2873 71.2978 87.9709 64.8844 91.6364H21.7822C15.3689 87.9709 0 76.2873 0 54.4091C0 30.6982 19.4133 11.4545 43.3333 11.4545C67.2533 11.4545 86.6667 30.6982 86.6667 54.4091ZM114.804 42.21L106.889 45.8182L114.804 49.4264L118.444 57.2727L122.084 49.4264L130 45.8182L122.084 42.21L118.444 34.3636L114.804 42.21ZM101.111 34.3636L106.542 22.5655L118.444 17.1818L106.542 11.7982L101.111 0L95.68 11.7982L83.7778 17.1818L95.68 22.5655L101.111 34.3636Z" fill="white"/>
</svg>
