<svg width="95" height="111" viewBox="0 0 95 111" fill="none" xmlns="http://www.w3.org/2000/svg">
<path fill-rule="evenodd" clip-rule="evenodd" d="M65.4913 1.15457C65.0152 2.92104 64.0098 3.72686 62.1734 3.81364C61.5589 3.84269 61.7093 3.97495 62.7159 4.29147C64.6881 4.91151 65.2919 5.52811 65.7027 7.34312C66.0341 8.80454 66.0669 8.83703 66.1047 7.74336C66.1645 6.0178 67.4273 4.64201 69.3408 4.21693C70.5727 3.94322 70.7166 3.84536 69.9327 3.8144C67.5754 3.72113 66.4759 2.68479 66.0712 0.174049C66.001 -0.260591 65.7652 0.138117 65.4913 1.15457ZM59.209 9.66006C55.2869 12.5879 54.4389 13.6712 54.7491 15.3563C55.0041 16.7408 54.2996 16.3417 53.903 14.8769L53.6075 13.7855L50.5211 16.0172C46.4104 18.9897 45.3452 20.804 46.4791 22.9034C46.7877 23.4749 46.7572 23.5899 46.3386 23.4305C45.7457 23.2054 44.927 21.645 44.927 20.7405C44.927 20.268 44.7167 20.3074 43.8066 20.9496C42.6226 21.7849 42.0377 21.9695 42.3962 21.395C42.5146 21.2054 42.0937 20.8712 41.461 20.6526C40.5134 20.3254 40.2368 20.3693 39.8915 20.9022C39.5478 21.4328 39.5173 21.3778 39.721 20.5933C39.858 20.0677 40.0663 17.4442 40.1847 14.7637C40.3568 10.8657 40.2974 9.8898 39.8888 9.8898C39.0671 9.8898 34.478 12.7312 32.4749 14.4801C30.1478 16.5118 28.4209 18.9897 27.2855 21.9271L26.397 24.2249L26.632 22.218C26.9086 19.8552 26.8804 19.8452 23.3384 21.0303C20.3311 22.0368 17.4561 24.6053 16.7682 26.9008C15.9295 29.7013 15.8342 34.1379 16.5506 37.0584C18.4032 44.6098 22.7855 50.449 34.743 61.2958C42.7488 68.5582 45.7885 71.6427 48.5342 75.2903C50.0516 77.3053 51.501 79.2835 51.7557 79.6864C52.7923 81.326 50.9455 76.0579 49.6345 73.6359C47.9173 70.4626 45.6616 67.4622 41.1238 62.3165C36.4301 56.9938 33.0197 52.1256 31.64 48.7796C30.6906 46.4772 30.5039 45.5024 30.5255 42.9561C30.5397 41.2741 30.7045 39.521 30.8912 39.0608C31.1292 38.4747 31.2338 39.1628 31.24 41.3544C31.2477 44.0926 31.3927 44.7489 32.3974 46.5876C33.8113 49.1764 35.993 50.7483 42.4629 53.8408C47.5312 56.2633 48.2021 56.7862 50.5115 60.1154C51.3548 61.331 52.3417 62.4832 52.7043 62.6754C53.8212 63.2676 55.9466 63.0787 56.6341 62.326C57.4647 61.4166 57.4393 60.9996 56.501 60.1582C56.0766 59.7778 55.7294 59.2943 55.7294 59.084C55.7294 58.8738 56.0334 58.972 56.4046 59.3019C57.3984 60.1857 59.7822 60.5206 61.1337 59.9659C62.7498 59.3027 63.7865 57.4701 63.6796 55.4655C63.6051 54.0702 63.305 53.5392 61.6268 51.8339C57.3367 47.4757 55.3043 43.4198 54.7514 38.1154C54.2896 33.6872 53.3614 30.8699 51.4131 27.9864C50.5782 26.7505 50.16 26.4424 49.5369 26.6041C48.9139 26.7655 49.2132 26.1806 50.8741 23.9894C52.0512 22.437 53.0172 21.0509 53.0215 20.9099C53.0253 20.7684 52.4235 20.4546 51.6839 20.213C49.7132 19.5685 49.7001 19.1296 51.6523 19.1591C52.6206 19.1736 53.7784 18.9159 54.3166 18.5665C55.1688 18.0134 59.5874 12.2129 59.5874 11.6475C59.5874 11.5217 59.2834 11.4032 58.9123 11.3845C58.5411 11.3654 58.7579 11.191 59.3945 10.9965C60.3903 10.6926 63.4007 7.38862 62.9979 7.04228C62.9257 6.98035 61.2209 8.15851 59.209 9.66006ZM46.856 7.97846C46.856 8.1887 47.0296 8.36073 47.2418 8.36073C47.454 8.36073 47.6276 8.1887 47.6276 7.97846C47.6276 7.76821 47.454 7.59619 47.2418 7.59619C47.0296 7.59619 46.856 7.76821 46.856 7.97846ZM67.6549 16.8047C67.0943 17.3601 67.1028 17.487 67.7513 18.2806C68.1414 18.7581 68.4608 18.9339 68.4608 18.6709C68.4608 18.4079 68.6969 18.0019 68.9855 17.7684C69.4238 17.414 69.408 17.2496 68.8891 16.7706C68.3362 16.2603 68.2004 16.2641 67.6549 16.8047ZM10.5969 31.0966C9.69341 32.4704 8.42373 35.0989 7.77559 36.9373C6.75206 39.8398 6.59619 40.8089 6.59272 44.294C6.58694 49.59 7.49859 52.5182 10.9943 58.4311C12.9596 61.7553 19.8411 68.8896 29.2593 77.3668C37.1281 84.4491 41.9471 90.6782 44.2245 96.7108C45.2962 99.5495 45.4382 100.393 45.4698 104.119C45.4895 106.432 45.3792 108.926 45.2248 109.662L44.9436 111L45.9143 109.853C47.5099 107.967 49.9177 102.774 50.5215 99.9142C52.1361 92.2677 50.2773 85.2446 44.65 77.73C43.3788 76.0323 39.2368 71.7241 35.2909 67.9947C24.507 57.8034 21.3631 54.6673 19.0051 51.7483C13.4403 44.8598 11.0356 37.7511 12.095 31.3194C12.318 29.9651 12.4418 28.7987 12.3701 28.7276C12.2983 28.6565 11.5005 29.7223 10.5969 31.0966ZM60.3216 30.1405C60.2352 30.665 59.7363 31.3015 59.2016 31.5683C58.4833 31.9272 58.4115 32.0515 58.9204 32.0557C59.2965 32.0587 59.8081 32.5056 60.0577 33.0484C60.5072 34.0255 60.5145 34.027 60.822 33.2033C60.9929 32.7461 61.501 32.2763 61.9508 32.1597C62.7595 31.9502 62.7583 31.9421 61.8555 31.4632C61.3532 31.1971 60.8374 30.5774 60.7097 30.0866L60.4767 29.1944L60.3216 30.1405ZM44.9305 34.2098C46.6697 34.8994 47.2565 35.6926 47.2113 37.2924C47.1947 37.8845 47.0933 38.154 46.9864 37.891C46.8792 37.6284 46.3286 37.4105 45.763 37.4075C45.1971 37.404 44.5281 37.2717 44.2762 37.1127C43.5161 36.6341 42.5717 33.5905 43.1832 33.5905C43.285 33.5905 44.0713 33.8692 44.9305 34.2098ZM4.41797 57.6914C4.41797 61.7955 6.27676 66.5646 9.55182 70.8644C11.5437 73.4791 17.333 79.123 23.4669 84.4288C31.4869 91.3667 35.1473 95.7803 37.4676 101.309L38.8074 104.501L38.6242 101.443C38.1581 93.6603 34.0714 87.4109 23.5645 78.4154C17.9897 73.642 11.1498 67.0004 9.35197 64.6143C7.7046 62.4285 5.18957 57.6769 5.18957 56.751C5.18957 56.4422 5.01596 56.0832 4.80377 55.9532C4.56573 55.8072 4.41797 56.4724 4.41797 57.6914Z" fill="url(#paint0_linear_1_1434)"/>
<path d="M70.7627 98.0003H70.1627C70.0427 98.0003 69.9577 97.9803 69.9077 97.9403C69.8677 97.9003 69.8477 97.8203 69.8477 97.7003V96.6653C69.8477 96.4553 69.9527 96.3503 70.1627 96.3503H70.7627C70.8727 96.3503 70.9277 96.2953 70.9277 96.1853V94.7603C70.9277 94.5503 71.0377 94.4453 71.2577 94.4453H72.5177C72.7277 94.4453 72.8327 94.5503 72.8327 94.7603V96.1853C72.8327 96.2953 72.8927 96.3503 73.0127 96.3503H74.1827C74.3927 96.3503 74.4977 96.4553 74.4977 96.6653V97.7003C74.4977 97.8103 74.4727 97.8903 74.4227 97.9403C74.3827 97.9803 74.3027 98.0003 74.1827 98.0003H73.0127C72.8927 98.0003 72.8327 98.0553 72.8327 98.1653V101.48C72.8327 101.79 72.9027 102.015 73.0427 102.155C73.1827 102.285 73.4127 102.35 73.7327 102.35H74.3327C74.5427 102.35 74.6477 102.455 74.6477 102.665V103.7C74.6477 103.81 74.6227 103.89 74.5727 103.94C74.5327 103.98 74.4527 104 74.3327 104H73.4177C72.6277 104 72.0127 103.79 71.5727 103.37C71.1427 102.95 70.9277 102.35 70.9277 101.57V98.1653C70.9277 98.0553 70.8727 98.0003 70.7627 98.0003Z" fill="#7972DD"/>
<path d="M57.0548 104H55.7798C55.5698 104 55.4648 103.895 55.4648 103.685V93.7701C55.4648 93.5601 55.5698 93.4551 55.7798 93.4551H57.0548C57.2648 93.4551 57.3698 93.5601 57.3698 93.7701V103.685C57.3698 103.895 57.2648 104 57.0548 104Z" fill="#7972DD"/>
<path d="M91.0459 104H90.6859C89.8959 104 89.2859 103.79 88.8559 103.37C88.4259 102.95 88.2109 102.345 88.2109 101.555V98.7946C88.2109 98.0046 88.4259 97.3996 88.8559 96.9796C89.2859 96.5596 89.8959 96.3496 90.6859 96.3496H94.1509C94.3709 96.3496 94.4809 96.4546 94.4809 96.6646V103.685C94.4809 103.895 94.3709 104 94.1509 104H92.8909C92.6809 104 92.5759 103.895 92.5759 103.685V103.19H92.5159C92.4059 103.46 92.2109 103.665 91.9309 103.805C91.6509 103.935 91.3559 104 91.0459 104ZM92.5759 101.21V98.1646C92.5759 98.0546 92.5159 97.9996 92.3959 97.9996H90.9859C90.6659 97.9996 90.4409 98.0696 90.3109 98.2096C90.1809 98.3396 90.1159 98.5646 90.1159 98.8846V101.465C90.1159 101.785 90.1809 102.015 90.3109 102.155C90.4409 102.285 90.6659 102.35 90.9859 102.35H91.5409C92.2309 102.35 92.5759 101.97 92.5759 101.21Z" fill="#7972DD"/>
<path d="M83.0772 104H82.5822C81.8122 104 81.2272 103.79 80.8272 103.37C80.4372 102.95 80.2422 102.345 80.2422 101.555V96.6646C80.2422 96.4546 80.3472 96.3496 80.5572 96.3496H81.8322C82.0422 96.3496 82.1472 96.4546 82.1472 96.6646V101.465C82.1472 101.785 82.2122 102.015 82.3422 102.155C82.4822 102.285 82.7072 102.35 83.0172 102.35H83.5722C84.2622 102.35 84.6072 101.97 84.6072 101.21V96.6646C84.6072 96.4546 84.7122 96.3496 84.9222 96.3496H86.1822C86.4022 96.3496 86.5122 96.4546 86.5122 96.6646V103.685C86.5122 103.895 86.4022 104 86.1822 104H84.9222C84.7122 104 84.6072 103.895 84.6072 103.685V103.19H84.5472C84.4372 103.46 84.2422 103.665 83.9622 103.805C83.6822 103.935 83.3872 104 83.0772 104Z" fill="#7972DD"/>
<path d="M78.377 101.84V103.685C78.377 103.895 78.282 104 78.092 104H76.757C76.557 104 76.457 103.895 76.457 103.685V101.855C76.457 101.655 76.557 101.555 76.757 101.555H78.092C78.282 101.555 78.377 101.65 78.377 101.84Z" fill="#7972DD"/>
<path d="M23.9064 104H22.6314C22.4214 104 22.3164 103.895 22.3164 103.685V93.7701C22.3164 93.5601 22.4214 93.4551 22.6314 93.4551H23.9064C24.1164 93.4551 24.2214 93.5601 24.2214 93.7701V97.1601H24.2814C24.5014 96.6201 24.9914 96.3501 25.7514 96.3501H26.2314C27.8014 96.3501 28.5864 97.1651 28.5864 98.7951V103.685C28.5864 103.895 28.4764 104 28.2564 104H26.9964C26.7864 104 26.6814 103.895 26.6814 103.685V98.8851C26.6814 98.5651 26.6114 98.3401 26.4714 98.2101C26.3414 98.0701 26.1164 98.0001 25.7964 98.0001H25.2564C24.5664 98.0001 24.2214 98.3801 24.2214 99.1401V103.685C24.2214 103.895 24.1164 104 23.9064 104Z" fill="#7972DD"/>
<path d="M18.3493 104H15.4993C15.2993 104 15.1993 103.895 15.1993 103.685V102.725C15.1993 102.615 15.2193 102.54 15.2593 102.5C15.2993 102.45 15.3793 102.425 15.4993 102.425H18.0043C18.4943 102.425 18.7393 102.275 18.7393 101.975V101.9C18.7393 101.66 18.5343 101.43 18.1243 101.21L16.6393 100.385C16.1293 100.125 15.7543 99.8446 15.5143 99.5446C15.2743 99.2446 15.1543 98.8596 15.1543 98.3896C15.1543 97.6896 15.3393 97.1746 15.7093 96.8446C16.0793 96.5146 16.6593 96.3496 17.4493 96.3496H19.9543C20.1543 96.3496 20.2543 96.4546 20.2543 96.6646V97.6396C20.2543 97.7496 20.2343 97.8296 20.1943 97.8796C20.1543 97.9196 20.0743 97.9396 19.9543 97.9396H17.8693C17.3793 97.9396 17.1343 98.0646 17.1343 98.3146V98.3896C17.1343 98.6096 17.3493 98.8346 17.7793 99.0646L19.2943 99.9646C19.8143 100.245 20.1793 100.535 20.3893 100.835C20.5993 101.125 20.7043 101.51 20.7043 101.99C20.7043 103.33 19.9193 104 18.3493 104Z" fill="#7972DD"/>
<path d="M11.4648 95.0601V93.7551C11.4648 93.5551 11.5648 93.4551 11.7648 93.4551H13.0698C13.2698 93.4551 13.3698 93.5501 13.3698 93.7401V95.0601C13.3698 95.2601 13.2698 95.3601 13.0698 95.3601H11.7648C11.5648 95.3601 11.4648 95.2601 11.4648 95.0601ZM11.4648 103.685V96.6651C11.4648 96.4551 11.5648 96.3501 11.7648 96.3501H13.0548C13.2648 96.3501 13.3698 96.4551 13.3698 96.6651V103.685C13.3698 103.815 13.3448 103.9 13.2948 103.94C13.2548 103.98 13.1798 104 13.0698 104H11.7798C11.5698 104 11.4648 103.895 11.4648 103.685Z" fill="#7972DD"/>
<path d="M66.3493 104H63.4993C63.2993 104 63.1993 103.895 63.1993 103.685V102.725C63.1993 102.615 63.2193 102.54 63.2593 102.5C63.2993 102.45 63.3793 102.425 63.4993 102.425H66.0043C66.4943 102.425 66.7393 102.275 66.7393 101.975V101.9C66.7393 101.66 66.5343 101.43 66.1243 101.21L64.6393 100.385C64.1293 100.125 63.7543 99.8446 63.5143 99.5446C63.2743 99.2446 63.1543 98.8596 63.1543 98.3896C63.1543 97.6896 63.3393 97.1746 63.7093 96.8446C64.0793 96.5146 64.6593 96.3496 65.4493 96.3496H67.9543C68.1543 96.3496 68.2543 96.4546 68.2543 96.6646V97.6396C68.2543 97.7496 68.2343 97.8296 68.1943 97.8796C68.1543 97.9196 68.0743 97.9396 67.9543 97.9396H65.8693C65.3793 97.9396 65.1343 98.0646 65.1343 98.3146V98.3896C65.1343 98.6096 65.3493 98.8346 65.7793 99.0646L67.2943 99.9646C67.8143 100.245 68.1793 100.535 68.3893 100.835C68.5993 101.125 68.7043 101.51 68.7043 101.99C68.7043 103.33 67.9193 104 66.3493 104Z" fill="#7972DD"/>
<path d="M3.58043 104H1.87043C1.68043 104 1.56043 103.895 1.51043 103.685L0.0104348 96.6646C-0.0295652 96.4546 0.0454348 96.3496 0.235435 96.3496H1.67543C1.89543 96.3496 2.01543 96.4546 2.03543 96.6646L2.71043 101.795H2.83043L3.89543 96.6646C3.92544 96.4546 4.04043 96.3496 4.24043 96.3496H5.56044C5.77044 96.3496 5.89543 96.4546 5.93543 96.6646L6.97044 101.795H7.09044L7.78044 96.6646C7.81044 96.4546 7.93044 96.3496 8.14044 96.3496H9.58044C9.78044 96.3496 9.85544 96.4546 9.80544 96.6646L8.30544 103.685C8.26544 103.895 8.14544 104 7.94544 104H6.23544C6.03543 104 5.91544 103.895 5.87544 103.685L4.96043 98.6146H4.84044L3.94044 103.685C3.91043 103.895 3.79043 104 3.58043 104Z" fill="#7972DD"/>
<path d="M59.4648 95.0601V93.7551C59.4648 93.5551 59.5648 93.4551 59.7648 93.4551H61.0698C61.2698 93.4551 61.3698 93.5501 61.3698 93.7401V95.0601C61.3698 95.2601 61.2698 95.3601 61.0698 95.3601H59.7648C59.5648 95.3601 59.4648 95.2601 59.4648 95.0601ZM59.4648 103.685V96.6651C59.4648 96.4551 59.5648 96.3501 59.7648 96.3501H61.0548C61.2648 96.3501 61.3698 96.4551 61.3698 96.6651V103.685C61.3698 103.815 61.3448 103.9 61.2948 103.94C61.2548 103.98 61.1798 104 61.0698 104H59.7798C59.5698 104 59.4648 103.895 59.4648 103.685Z" fill="#7972DD"/>
<defs>
<linearGradient id="paint0_linear_1_1434" x1="37.418" y1="0" x2="37.418" y2="111" gradientUnits="userSpaceOnUse">
<stop stop-color="#E574FE"/>
<stop offset="0.390625" stop-color="#A383FF"/>
<stop offset="0.677083" stop-color="#AFC4FF"/>
<stop offset="1" stop-color="white"/>
</linearGradient>
</defs>
</svg>
