<svg width="30" height="30" viewBox="0 0 30 30" fill="none" xmlns="http://www.w3.org/2000/svg">
<path d="M13.7625 3.81214C8.1375 4.42464 3.75 9.19964 3.75 14.9996C3.75 17.9833 4.93526 20.8448 7.04505 22.9546C9.15483 25.0644 12.0163 26.2496 15 26.2496C20.7875 26.2496 25.5625 21.8746 26.1875 16.2496C26.3 15.2621 25.2125 14.4746 24.2625 15.0621C23.2421 15.7135 22.0654 16.0786 20.8555 16.1192C19.6456 16.1598 18.447 15.8745 17.3852 15.2932C16.3234 14.7118 15.4374 13.8557 14.8198 12.8145C14.2023 11.7733 13.876 10.5852 13.875 9.37464C13.875 8.04964 14.2625 6.79964 14.925 5.76214C15.4875 4.92464 14.875 3.72464 13.7625 3.81214Z" fill="#7972DD"/>
</svg>
