<svg width="30" height="30" viewBox="0 0 30 30" fill="none" xmlns="http://www.w3.org/2000/svg">
<path fill-rule="evenodd" clip-rule="evenodd" d="M15 2.5C15.3315 2.5 15.6495 2.6317 15.8839 2.86612C16.1183 3.10054 16.25 3.41848 16.25 3.75V5C16.25 5.33152 16.1183 5.64946 15.8839 5.88388C15.6495 6.1183 15.3315 6.25 15 6.25C14.6685 6.25 14.3505 6.1183 14.1161 5.88388C13.8817 5.64946 13.75 5.33152 13.75 5V3.75C13.75 3.41848 13.8817 3.10054 14.1161 2.86612C14.3505 2.6317 14.6685 2.5 15 2.5ZM2.5 15C2.5 14.6685 2.6317 14.3505 2.86612 14.1161C3.10054 13.8817 3.41848 13.75 3.75 13.75H5C5.33152 13.75 5.64946 13.8817 5.88388 14.1161C6.1183 14.3505 6.25 14.6685 6.25 15C6.25 15.3315 6.1183 15.6495 5.88388 15.8839C5.64946 16.1183 5.33152 16.25 5 16.25H3.75C3.41848 16.25 3.10054 16.1183 2.86612 15.8839C2.6317 15.6495 2.5 15.3315 2.5 15ZM23.75 15C23.75 14.6685 23.8817 14.3505 24.1161 14.1161C24.3505 13.8817 24.6685 13.75 25 13.75H26.25C26.5815 13.75 26.8995 13.8817 27.1339 14.1161C27.3683 14.3505 27.5 14.6685 27.5 15C27.5 15.3315 27.3683 15.6495 27.1339 15.8839C26.8995 16.1183 26.5815 16.25 26.25 16.25H25C24.6685 16.25 24.3505 16.1183 24.1161 15.8839C23.8817 15.6495 23.75 15.3315 23.75 15ZM16.25 25C16.25 24.6685 16.1183 24.3505 15.8839 24.1161C15.6495 23.8817 15.3315 23.75 15 23.75C14.6685 23.75 14.3505 23.8817 14.1161 24.1161C13.8817 24.3505 13.75 24.6685 13.75 25V26.25C13.75 26.5815 13.8817 26.8995 14.1161 27.1339C14.3505 27.3683 14.6685 27.5 15 27.5C15.3315 27.5 15.6495 27.3683 15.8839 27.1339C16.1183 26.8995 16.25 26.5815 16.25 26.25V25ZM22.955 21.1875C22.8397 21.0681 22.7018 20.9729 22.5493 20.9074C22.3967 20.8419 22.2327 20.8074 22.0667 20.8059C21.9008 20.8045 21.7362 20.8361 21.5826 20.899C21.4289 20.9618 21.2894 21.0546 21.172 21.172C21.0546 21.2894 20.9618 21.4289 20.899 21.5826C20.8361 21.7362 20.8045 21.9008 20.8059 22.0667C20.8074 22.2327 20.8419 22.3967 20.9074 22.5493C20.9729 22.7018 21.0681 22.8397 21.1875 22.955L22.0712 23.8387C22.307 24.0664 22.6228 24.1924 22.9505 24.1896C23.2782 24.1867 23.5918 24.0553 23.8235 23.8235C24.0553 23.5918 24.1867 23.2782 24.1896 22.9505C24.1924 22.6228 24.0664 22.307 23.8387 22.0712L22.955 21.1875ZM6.16125 6.16125C6.39566 5.92691 6.71354 5.79527 7.045 5.79527C7.37646 5.79527 7.69434 5.92691 7.92875 6.16125L8.8125 7.045C9.0402 7.28075 9.16619 7.59651 9.16334 7.92425C9.16049 8.252 9.02903 8.56551 8.79727 8.79727C8.56551 9.02903 8.252 9.16049 7.92425 9.16334C7.59651 9.16619 7.28075 9.0402 7.045 8.8125L6.16125 7.92875C5.92691 7.69434 5.79527 7.37646 5.79527 7.045C5.79527 6.71354 5.92691 6.39566 6.16125 6.16125ZM8.8125 22.955C8.93189 22.8397 9.02712 22.7018 9.09263 22.5493C9.15814 22.3967 9.19262 22.2327 9.19406 22.0667C9.19551 21.9008 9.16388 21.7362 9.10103 21.5826C9.03818 21.4289 8.94536 21.2894 8.82799 21.172C8.71063 21.0546 8.57106 20.9618 8.41744 20.899C8.26382 20.8361 8.09922 20.8045 7.93325 20.8059C7.76727 20.8074 7.60325 20.8419 7.45074 20.9074C7.29824 20.9729 7.16031 21.0681 7.045 21.1875L6.16125 22.0712C6.04186 22.1866 5.94663 22.3245 5.88112 22.477C5.81561 22.6295 5.78113 22.7935 5.77969 22.9595C5.77824 23.1255 5.80987 23.2901 5.87272 23.4437C5.93557 23.5973 6.02839 23.7369 6.14576 23.8542C6.26312 23.9716 6.40269 24.0644 6.55631 24.1273C6.70993 24.1901 6.87453 24.2218 7.0405 24.2203C7.20648 24.2189 7.3705 24.1844 7.52301 24.1189C7.67551 24.0534 7.81344 23.9581 7.92875 23.8387L8.8125 22.955ZM23.8387 6.16125C24.0731 6.39566 24.2047 6.71354 24.2047 7.045C24.2047 7.37646 24.0731 7.69434 23.8387 7.92875L22.955 8.8125C22.8397 8.93189 22.7018 9.02712 22.5493 9.09263C22.3967 9.15814 22.2327 9.19262 22.0667 9.19406C21.9008 9.19551 21.7362 9.16388 21.5826 9.10103C21.4289 9.03818 21.2894 8.94536 21.172 8.82799C21.0546 8.71063 20.9618 8.57106 20.899 8.41744C20.8361 8.26382 20.8045 8.09922 20.8059 7.93325C20.8074 7.76727 20.8419 7.60325 20.9074 7.45074C20.9729 7.29824 21.0681 7.16031 21.1875 7.045L22.0712 6.16125C22.3057 5.92691 22.6235 5.79527 22.955 5.79527C23.2865 5.79527 23.6043 5.92691 23.8387 6.16125ZM8.75 15C8.75 13.3424 9.40848 11.7527 10.5806 10.5806C11.7527 9.40848 13.3424 8.75 15 8.75C16.6576 8.75 18.2473 9.40848 19.4194 10.5806C20.5915 11.7527 21.25 13.3424 21.25 15C21.25 16.6576 20.5915 18.2473 19.4194 19.4194C18.2473 20.5915 16.6576 21.25 15 21.25C13.3424 21.25 11.7527 20.5915 10.5806 19.4194C9.40848 18.2473 8.75 16.6576 8.75 15Z" fill="#7972DD"/>
</svg>
